<svg xmlns="http://www.w3.org/2000/svg" viewBox="0 0 256 256" width="256" height="256">
  <rect width="256" height="256" rx="44" fill="#0D2137"/>
  <rect x="36" y="48" width="184" height="160" rx="14" fill="#0F2D4A"/>
  <rect x="36" y="48" width="184" height="40" rx="14" fill="#0F2D4A"/>
  <rect x="36" y="70" width="184" height="18" fill="#0F2D4A"/>
  <rect x="56" y="56" width="60" height="8" rx="4" fill="#1E4A6E"/>
  <rect x="56" y="70" width="40" height="6" rx="3" fill="#1E4A6E"/>
  <rect x="180" y="58" width="24" height="24" rx="6" fill="#00B89C"/>
  <text x="192" y="75" text-anchor="middle" font-family="Arial,sans-serif" font-weight="700" font-size="14" fill="#0D2137">$</text>
  <line x1="56" y1="108" x2="200" y2="108" stroke="#1E4A6E" stroke-width="1"/>
  <line x1="56" y1="130" x2="200" y2="130" stroke="#1E4A6E" stroke-width="1"/>
  <line x1="56" y1="152" x2="200" y2="152" stroke="#1E4A6E" stroke-width="1"/>
  <line x1="56" y1="174" x2="200" y2="174" stroke="#1E4A6E" stroke-width="1"/>
  <rect x="56" y="96" width="52" height="10" rx="3" fill="#2A6096"/>
  <rect x="56" y="118" width="64" height="10" rx="3" fill="#2A6096"/>
  <rect x="56" y="140" width="44" height="10" rx="3" fill="#2A6096"/>
  <rect x="56" y="162" width="70" height="10" rx="3" fill="#2A6096"/>
  <rect x="140" y="96" width="36" height="10" rx="3" fill="#00B89C" opacity="0.9"/>
  <rect x="140" y="118" width="44" height="10" rx="3" fill="#F5A623" opacity="0.9"/>
  <rect x="140" y="140" width="28" height="10" rx="3" fill="#00B89C" opacity="0.9"/>
  <rect x="140" y="162" width="44" height="10" rx="3" fill="#00B89C" opacity="0.9"/>
  <circle cx="192" cy="101" r="9" fill="#00B89C" opacity="0.2"/>
  <circle cx="192" cy="123" r="9" fill="#F5A623" opacity="0.2"/>
  <circle cx="192" cy="145" r="9" fill="#00B89C" opacity="0.2"/>
  <circle cx="192" cy="167" r="9" fill="#00B89C" opacity="0.2"/>
  <text x="192" y="105" text-anchor="middle" font-family="Arial,sans-serif" font-weight="700" font-size="11" fill="#00B89C">✓</text>
  <text x="192" y="127" text-anchor="middle" font-family="Arial,sans-serif" font-weight="700" font-size="12" fill="#F5A623">½</text>
  <text x="192" y="149" text-anchor="middle" font-family="Arial,sans-serif" font-weight="700" font-size="11" fill="#00B89C">✓</text>
  <text x="192" y="171" text-anchor="middle" font-family="Arial,sans-serif" font-weight="700" font-size="11" fill="#00B89C">✓</text>
  <path d="M56 196 Q80 186 104 196 Q128 206 152 196 Q176 186 200 196" stroke="#00B89C" stroke-width="2.5" fill="none" stroke-linecap="round"/>
  <circle cx="56" cy="196" r="3.5" fill="#00B89C"/>
  <circle cx="200" cy="196" r="3.5" fill="#F5A623"/>
</svg>
